<?xml version="1.0" standalone="no"?>
<!DOCTYPE svg PUBLIC "-//W3C//DTD SVG 1.1//EN" "http://www.w3.org/Graphics/SVG/1.1/DTD/svg11.dtd" >
<svg xmlns="http://www.w3.org/2000/svg">
<metadata>
Created by FontForge 20120731 at Mon Jan  2 12:29:14 2017
 By admin
</metadata>
<defs>
<font id="iconfont" horiz-adv-x="1024" >
  <font-face 
    font-family="iconfont"
    font-weight="500"
    font-stretch="normal"
    units-per-em="1024"
    panose-1="2 0 6 3 0 0 0 0 0 0"
    ascent="896"
    descent="-128"
    x-height="792"
    bbox="0 -212 1157 896"
    underline-thickness="0"
    underline-position="0"
    unicode-range="U+0078-E899"
  />
<missing-glyph 
 />
    <glyph glyph-name=".notdef" 
 />
    <glyph glyph-name=".notdef" 
 />
    <glyph glyph-name=".null" horiz-adv-x="0" 
 />
    <glyph glyph-name="nonmarkingreturn" horiz-adv-x="341" 
 />
    <glyph glyph-name="x" unicode="x" horiz-adv-x="1001" 
d="M281 543q-27 -1 -53 -1h-83q-18 0 -36.5 -6t-32.5 -18.5t-23 -32t-9 -45.5v-76h912v41q0 16 -0.5 30t-0.5 18q0 13 -5 29t-17 29.5t-31.5 22.5t-49.5 9h-133v-97h-438v97zM955 310v-52q0 -23 0.5 -52t0.5 -58t-10.5 -47.5t-26 -30t-33 -16t-31.5 -4.5q-14 -1 -29.5 -0.5
t-29.5 0.5h-32l-45 128h-439l-44 -128h-29h-34q-20 0 -45 1q-25 0 -41 9.5t-25.5 23t-13.5 29.5t-4 30v167h911zM163 247q-12 0 -21 -8.5t-9 -21.5t9 -21.5t21 -8.5q13 0 22 8.5t9 21.5t-9 21.5t-22 8.5zM316 123q-8 -26 -14 -48q-5 -19 -10.5 -37t-7.5 -25t-3 -15t1 -14.5
t9.5 -10.5t21.5 -4h37h67h81h80h64h36q23 0 34 12t2 38q-5 13 -9.5 30.5t-9.5 34.5q-5 19 -11 39h-368zM336 498v228q0 11 2.5 23t10 21.5t20.5 15.5t34 6h188q31 0 51.5 -14.5t20.5 -52.5v-227h-327z" />
    <glyph glyph-name="cmstubiaozitihua30" unicode="&#xe773;" 
d="M211 202q8 16 12 26q40 -12 86 -26q28 23 62 59h-123q-28 -2 -39 -5q0 9 -14 26q17 7 31 41h-67q-30 0 -57 -1v27q23 -1 57 -1h77l15 41h-64q-28 0 -46 -2v26q18 -1 46 -1h71q12 32 16 54q32 -4 37 -4q-8 -20 -19 -50h92q24 0 58 1v-26q-24 2 -58 2h-98l-16 -41h152
q25 0 59 1v-27q-26 1 -58 1h-161q-11 -23 -17 -38h185v-23q-12 -3 -41 -27q-31 -25 -49 -44q45 -14 56 -16l-17 -28q-32 14 -168 55zM667 310q24 0 49 1v-25q-24 3 -64 3v-35q34 0 54 1v-25q-20 2 -54 2v-42q59 -17 138 -15q81 1 138 9q-7 -15 -9 -33q-68 -1 -116 0
q-50 0 -90 5q-41 4 -72.5 14t-63.5 31q-9 -29 -22 -56q-16 9 -29 12q15 31 20 55q5 25 9 55q17 -4 34 -5q-5 -12 -9 -37q24 -17 43 -24v88q-61 0 -87 -3v25q25 -1 49 -1h82zM698 390q0 -26 1 -59h-144q1 31 1 60q0 28 -1 58h144q-1 -32 -1 -59zM667 401v26h-80v-26h80z
M667 352v27h-80v-27h80zM833 303q-1 -16 -6 -36t-22 -42t-56 -44q-10 14 -28 21q35 15 51 30t23.5 32.5t7.5 36.5q0 20 -1 43q16 -3 35 -4q-3 -20 -4 -37zM861 449q22 0 53 1v-25q-31 2 -87 2l-7 -41h77q-3 -21 -3 -63t3 -67h-32v109h-99v-120h-31q2 28 2 74q0 45 -2 67h55
l6 41q-41 0 -73 -2v25q32 -1 56 -1h82zM904 210q-14 -8 -21 -19q-15 12 -58 36q12 8 19 19q38 -20 60 -36zM924 52h-824q-41 0 -70.5 32t-29.5 77v278q0 45 29.5 77t70.5 32h824q41 0 70.5 -32t29.5 -77v-278q0 -45 -29.5 -77t-70.5 -32zM100 531q-34 0 -58.5 -27t-24.5 -65
v-278q0 -38 24.5 -65t58.5 -27h824q34 0 58.5 27t24.5 65v278q0 38 -24.5 65t-58.5 27h-824z" />
    <glyph glyph-name="jiantouicon" unicode="&#xe626;" 
d="M115 356h794q22 0 37 -15.5t15 -37t-15 -36.5t-37 -15h-794q-22 0 -37 15t-15 36.5t15 37t37 15.5zM484.5 673.5q16.5 -16.5 19.5 -37t-9 -32.5l-323 -323q-15 -14 -45.5 -21t-48.5 8q-16 17 -15 37.5t14 33.5l338 345q12 12 32.5 9t37 -19.5zM115 356h794q22 0 37 -15.5
t15 -37t-15 -36.5t-37 -15h-794q-22 0 -37 15t-15 36.5t15 37t37 15.5zM415 -76l-338 344q-13 13 -14 33.5t15 38.5q18 14 48.5 7t45.5 -21l323 -323q12 -12 9 -32.5t-19.5 -37t-37 -19.5t-32.5 10z" />
    <glyph glyph-name="icon105" unicode="&#xe666;" 
d="M409 407zM359 407q0 21 14.5 36t35.5 15t36 -15t15 -36t-15 -35.5t-36 -14.5t-35.5 14.5t-14.5 35.5zM536 196l-52 83l-58 -99l-44 65l-104 -147h471l-141 227zM730 606h-433q-36 0 -62 -26t-26 -63v-433q0 -36 26 -62t62 -26h433q36 0 62 26t26 62v433q0 37 -26 63
t-62 26zM774 84q0 -18 -13 -31t-31 -13h-433q-18 0 -31 13t-13 31v433q0 18 13 31t31 13h433q18 0 31 -13t13 -31v-433zM587 -86q0 -12 -8 -20t-20 -8h-433q-11 0 -19 8t-8 20v432q0 12 8 20t19 8h79v33h-79q-25 0 -42.5 -17.5t-17.5 -43.5v-432q0 -26 17.5 -43.5
t42.5 -17.5h433q25 0 43 17.5t18 43.5v78h-33v-78zM578 -73l-40 65h-281q-21 0 -36.5 15.5t-15.5 37.5v21l-98 -139h471zM205 223v95q-9 4 -17 4q-21 0 -36 -15t-15 -36t15 -36t36 -15q8 0 17 3zM579 612q0 21 -15 35.5t-36 14.5t-35.5 -14.5t-14.5 -35.5v-1.5v-1.5h101v1.5
v1.5zM900 748h-433q-25 0 -43 -18t-18 -43v-78h33v78q0 11 8.5 19.5t19.5 8.5h433q11 0 19 -8.5t8 -19.5v-433q0 -11 -8 -19t-19 -8h-78v-34h78q25 0 43 18t18 43v433q0 25 -18 43t-43 18zM822 424v-156h97z" />
    <glyph glyph-name="iconfontsangedian" unicode="&#xe60b;" 
d="M560 434q0 20 -14 34t-34 14t-34 -14t-14 -34t14 -34t34 -14t34 14t14 34v0zM560 300q0 19 -14 33.5t-34 14.5t-34 -14.5t-14 -34t14 -34t34 -14.5t34 14.5t14 34.5v0zM560 165q0 20 -14 34t-34 14t-34 -14t-14 -34t14 -34t34 -14t34 14t14 34v0zM560 165z" />
    <glyph glyph-name="share" unicode="&#xe613;" 
d="M623 -19l-1 -13q0 -51 35.5 -86.5t86 -35.5t86 35.5t35.5 86t-35.5 86t-86.5 35.5q-31 0 -58 -15t-44 -41l-258 202q14 27 14 55q0 16 -6 35l263 205q37 -40 89 -40q51 0 86.5 36t35.5 86t-35.5 86t-86 36t-86 -36t-35.5 -86q0 -16 5 -35l-263 -205q-36 39 -89 39
q-50 0 -85.5 -35.5t-35.5 -86t35.5 -86t85.5 -35.5q40 0 74 25l274 -212v0z" />
    <glyph glyph-name="lock" unicode="&#xe62b;" 
d="M747 -117h-470q-35 0 -60 25t-25 60v384q0 35 25 60t60 25h43v64q0 80 56 136t136 56t136 -56t56 -136v-64h43q35 0 60 -25t25 -60v-384q0 -35 -25 -60t-60 -25zM512 96q27 0 45.5 18.5t18.5 45.5t-18.5 45.5t-45.5 18.5t-45.5 -18.5t-18.5 -45.5t18.5 -45.5t45.5 -18.5z
M619 459v42q0 45 -31.5 76t-75.5 31t-75.5 -31t-31.5 -76v-42q0 -11 2 -22h210q2 11 2 22z" />
    <glyph glyph-name="tupian" unicode="&#xe607;" 
d="M843 611h-657q-19 0 -33 -13.5t-14 -33.5v-539q0 -20 14 -33.5t33 -13.5h657q20 0 33.5 13.5t13.5 33.5v539q0 20 -13.5 33.5t-33.5 13.5zM843 25h-657v138l188 182l195 -194q6 -7 15 -6.5t17 6.5l86 77l154 -159q1 0 2 -1v-43zM843 135l-138 141q-14 14 -30 2l-89 -77
l-194 192q-7 8 -17 9q-10 0 -17 -7l-172 -167v336h657v-429zM679 377q19 0 33 13.5t14 33t-14 33t-33 13.5t-33 -13.5t-14 -33t14 -33t33 -13.5z" />
    <glyph glyph-name="zuojiantou" unicode="&#xe60d;" 
d="M489 -49l65 65l-266 266h626v93h-626l266 266l-65 66l-379 -378z" />
    <glyph glyph-name="qq" unicode="&#xe601;" 
d="M512 791q-100 0 -190.5 -39t-156.5 -104.5t-104.5 -156.5t-38.5 -190.5t38.5 -190.5t104.5 -156.5t156.5 -104.5t190.5 -39t190.5 38.5t156.5 104.5t104.5 156.5t38.5 190.5t-38.5 191t-104.5 156.5t-156.5 104.5t-190.5 39zM718 194q-11 -1 -21 15t-14 19
q-8 -38 -36 -60q4 -3 18.5 -10t21.5 -15t6 -20q-1 -24 -35 -33.5t-74 -6.5q-35 2 -71 27q-6 -2 -16.5 -9t-16.5 -9q-23 -10 -57.5 -10.5t-62.5 10t-30 29.5q-1 14 6 22t23 15.5t19 9.5q-31 22 -36 58q-6 -1 -15.5 -16.5t-19.5 -15.5q-14 0 -18.5 21.5t-2.5 45.5q1 12 4 22.5
t9.5 21.5t10.5 17.5t12.5 17t9.5 12.5q-1 40 11 55q0 71 49 120q23 23 54.5 37.5t63.5 14.5q68 1 121 -51q36 -35 45 -83q1 -4 1.5 -17t2.5 -20q0 -3 4 -9t5 -11t0.5 -16t0.5 -17q1 -4 3 -7.5t6 -8t5 -5.5q29 -38 33 -69q3 -24 -1.5 -47t-17.5 -24z" />
    <glyph glyph-name="shoucang" unicode="&#xe603;" 
d="M935 487q-1 22 -12 56q-19 59 -56 101q-31 36 -74 55q-48 23 -108 23v0q-88 0 -150 -58q-13 -12 -23 -26q-30 39 -74.5 62t-95.5 23q-80 0 -138 -37q-47 -30 -77 -82q-33 -57 -38 -116v-2v-1q0 -48 8 -77q16 -62 48 -97l367 -395l370 396q24 31 34.5 57.5t16.5 62.5
q5 31 2 55zM847 334l-335 -355l-334 356q-13 18 -22.5 34.5t-15 26.5t-8 25.5t-3 19.5t0 22.5t0.5 21.5q0 4 1 11t6.5 27.5t14 39.5t25 41.5t37.5 39t54.5 27.5t73.5 11q28 1 62 -12.5t66 -46t43 -75.5q0 1 4.5 14.5t17 34.5t31 40t50 32.5t69.5 11.5q52 -2 92.5 -22.5
t62 -48t35 -57t17 -47.5t2.5 -23q1 0 1 -7.5t-1.5 -22t-5.5 -32.5t-14.5 -41.5t-26.5 -45.5z" />
    <glyph glyph-name="wode" unicode="&#xe60c;" horiz-adv-x="1048" 
d="M818 16q0 -12 -8.5 -20.5t-21 -8.5t-21 8.5t-8.5 20.5v0h-1q-10 85 -74.5 143t-151.5 60h-3.5h-4h-4h-3.5q-87 -2 -151.5 -60t-74.5 -143h-1v0q0 -12 -8.5 -20.5t-21 -8.5t-21 8.5t-8.5 20.5v3q0 5 2 10q11 76 58 136t117 89q-42 28 -66 72.5t-24 95.5q0 84 60.5 143.5
t146 59.5t146 -59.5t60.5 -143.5q0 -51 -24.5 -95.5t-65.5 -71.5q71 -30 118 -91t57 -137q2 -5 2 -8v-3v0v0zM672 422q0 60 -43.5 102.5t-104.5 42.5t-104 -42.5t-43 -102.5t43 -102.5t104 -42.5t104.5 42.5t43.5 102.5v0v0zM1047 300q0 104 -41.5 199t-111.5 163.5
t-167 109t-203.5 40.5t-203.5 -40.5t-167 -109t-111.5 -163.5t-41.5 -199q0 -182 116 -321.5t294 -178.5q50 -12 114 -12t114 12q177 39 293 178.5t116 321.5v0v0zM802 -50v1q-115 -87 -258 -93h-1h-9h-1h-9h-9h-2h-9v0v0q-144 6 -258 93v-1q-82 62 -129 153.5t-47 196.5
q0 90 36 172t96.5 141t144.5 94t177 35q120 0 222.5 -56.5t164.5 -154t66 -214.5v-17q0 -105 -47 -196.5t-128 -153.5v0v0z" />
    <glyph glyph-name="wode1" unicode="&#xe899;" 
d="M512 832q-91 0 -174 -35.5t-143 -95.5t-95.5 -143t-35.5 -174t35.5 -174t95.5 -143t143 -95.5t174 -35.5t174 35.5t143 95.5t95.5 143t35.5 174t-35.5 174t-95.5 143t-143 95.5t-174 35.5zM512 -14q-108 0 -200 53t-145 145t-53 200t53 200t145 145t200 53t200 -53
t145 -145t53 -200t-53 -200t-145 -145t-200 -53zM614 290q-8 1 -13 6q-3 4 -4 9q20 17 35 61q7 19 9 21v0l1 1v0q18 18 27 44q12 35 -3 61q6 21 8 40q3 26 0 47q-6 42 -35 78q-25 34 -56 31q-13 21 -46 28q-16 3 -45 3q-51 -2 -84 -27q-35 -25 -49 -72l-1 -2
q-11 -35 -11 -73q0 -30 8 -56q-13 -25 -1 -58q8 -25 27 -44v0v0v0l1 -1q1 -2 8 -21q16 -44 36 -62q-1 -5 -3 -8q-5 -5 -13 -6q-22 -2 -49 -14t-47 -33q-37 -40 -37 -96q0 -10 6 -16.5t14.5 -6.5t15 6.5t6.5 16.5q0 37 24 62q30 32 70 35q24 3 39 20q16 18 16 51q0 14 -11 20
q-14 10 -28 48q-10 29 -20 38v0v1q-11 12 -17 26q-2 12 -1.5 15t4 9t4.5 12q1 7 -2 14q-8 21 -8 49q-1 28 8 57l1 2q10 33 32 49q24 18 63 19q24 1 37 -2q16 -3 20 -10l1 -2q6 -9 15 -14q10 -5 21 -3q8 2 21 -14q21 -28 24 -55q3 -15 1 -35q-2 -18 -9 -41q-4 -15 5 -27v0
q7 -8 1 -23q-5 -15 -16 -26v-1v1q-9 -9 -20 -39q-13 -37 -29 -47q-13 -13 -8.5 -37t15.5 -35q15 -17 38 -20q41 -3 71 -35q24 -26 24 -62q0 -10 6 -16.5t14.5 -6.5t15 6.5t6.5 16.5q0 56 -37 96q-21 21 -47.5 33t-48.5 14z" />
    <glyph glyph-name="shuaxin" unicode="&#xe62d;" 
d="M607 710q0 -33 -23.5 -56.5t-56.5 -23.5t-56.5 23.5t-23.5 56.5t23.5 56.5t56.5 23.5t56.5 -23.5t23.5 -56.5zM527 118q-29 0 -49.5 -20.5t-20.5 -49.5t20.5 -49.5t49.5 -20.5t49.5 20.5t20.5 49.5t-20.5 49.5t-49.5 20.5zM858 329q-21 0 -35.5 14.5t-14.5 35.5
t14.5 35.5t35.5 14.5t35.5 -14.5t14.5 -35.5t-14.5 -35.5t-35.5 -14.5zM276 379q0 33 -23.5 56.5t-56.5 23.5t-56.5 -23.5t-23.5 -56.5t23.5 -56.5t56.5 -23.5t56.5 23.5t23.5 56.5zM349.5 669.5q23.5 -23.5 23.5 -56.5t-23.5 -56.5t-56.5 -23.5t-56.5 23.5t-23.5 56.5
t23.5 56.5t56.5 23.5t56.5 -23.5zM718.5 187.5q-17.5 -17.5 -17.5 -42.5t17.5 -42.5t42.5 -17.5t42.5 17.5t17.5 42.5t-17.5 42.5t-42.5 17.5t-42.5 -17.5zM789.5 585q-11.5 -12 -28 -12t-28.5 12t-12 28.5t12 28t28.5 11.5t28 -11.5t11.5 -28t-11.5 -28.5zM349.5 201.5
q-23.5 23.5 -56.5 23.5t-56.5 -23.5t-23.5 -56.5t23.5 -56.5t56.5 -23.5t56.5 23.5t23.5 56.5t-23.5 56.5z" />
    <glyph glyph-name="arrowDown" unicode="&#xe662;" 
d="M528 145l438 431q5 5 5 12.5t-5 12.5t-12 5t-12 -5l-426 -419l-425 424q-5 5 -12 5t-12 -5t-5 -12t5 -12l437 -437q5 -5 12 -5t12 5z" />
    <glyph glyph-name="wode2" unicode="&#xe6b1;" 
d="M512 834q-91 0 -173.5 -35.5t-142.5 -96t-95.5 -144t-35.5 -174.5t35.5 -174.5t95.5 -144t142.5 -96t173.5 -35.5t173.5 35.5t142.5 96t95.5 144t35.5 174.5t-35.5 174.5t-95.5 144t-142.5 96t-173.5 35.5v0zM512 699q57 0 95.5 -38.5t38.5 -96t-38.5 -96.5t-95.5 -39
t-95.5 39t-38.5 96.5t38.5 96t95.5 38.5v0zM512 60q-82 0 -153 39t-115 105q0 32 29 59.5t71.5 44.5t87.5 26t80 9t80 -9t87.5 -26t71.5 -44.5t29 -59.5q-44 -66 -115 -105t-153 -39v0z" />
    <glyph glyph-name="weixin" unicode="&#xe609;" horiz-adv-x="1025" 
d="M320 588q-15 0 -27 -9.5t-12 -23.5t12 -23.5t27 -9.5t24 9t9 24t-9 24t-24 9zM502 522q15 0 24 9t9 24t-9 24t-24 9t-27 -9.5t-12 -23.5t12 -23.5t27 -9.5zM512 896q-139 0 -257 -68.5t-186.5 -186.5t-68.5 -257t68.5 -257t186.5 -186.5t257 -68.5q104 0 199 40.5
t163.5 109t109 163.5t40.5 199t-40.5 199t-109 163.5t-163.5 109t-199 40.5zM405 252q-26 0 -91 13l-91 -46l26 79q-104 74 -104 178q0 93 76 158.5t184 65.5q96 0 170.5 -53t91.5 -132q-14 1 -25 1q-92 0 -156.5 -60.5t-64.5 -147.5q0 -27 8 -55q-12 -1 -24 -1zM788 160
l20 -66l-72 39q-52 -13 -78 -13q-92 0 -156.5 56t-64.5 135t64.5 135t156.5 56q89 0 155 -56.5t66 -134.5q0 -82 -91 -151zM730 397q-10 0 -18 -8.5t-8 -18t8 -18t18 -8.5q14 0 23 8t9 18.5t-9 18.5t-23 8zM587 397q-10 0 -18 -8.5t-8 -18t8 -18t18 -8.5q14 0 23 8t9 18.5
t-9 18.5t-23 8z" />
    <glyph glyph-name="suo" unicode="&#xe6ac;" 
d="M763 432v145q0 105 -73 180t-176 75t-176 -75t-73 -180v-145q-34 -10 -56 -39.5t-22 -66.5v-280q0 -47 32 -79.5t77 -32.5h436q45 0 77 32.5t32 79.5v280q0 37 -22 66.5t-56 39.5zM537 120v-47q0 -10 -7 -16.5t-16 -6.5t-16 6.5t-7 16.5v47q-20 7 -33 25.5t-13 41.5
q0 30 20 51t49 21t49.5 -21t20.5 -51q0 -23 -13.5 -41.5t-33.5 -25.5zM683 438h-338v139q0 71 49.5 122t119.5 51t119.5 -51t49.5 -122v-139z" />
    <glyph glyph-name="zhibodiba2" unicode="&#xe628;" horiz-adv-x="1048" 
d="M961 804q-66 47 -438 47q-356 0 -424 -41q-25 -15 -44.5 -61.5t-29 -97.5t-16 -114.5t-8 -96t-1.5 -59.5q1 -40 4 -87.5t12.5 -122t31 -132t51.5 -75.5q68 -41 424 -41q373 0 438 47q27 19 45.5 74t26.5 125t11 120.5t3 92.5q0 39 -2.5 87.5t-10 123t-26.5 133t-47 78.5z
M736 357l-294 -181q-7 -4 -17 -4q-8 0 -16 4q-16 9 -16 28v361q0 19 16.5 28.5t32.5 -0.5l294 -180q16 -10 16 -28.5t-16 -27.5z" />
    <glyph glyph-name="tubiao06" unicode="&#xe684;" 
d="M512 896q-104 0 -199 -35.5t-163.5 -95.5t-109 -143t-40.5 -174q0 -104 51 -195.5t141 -154.5v-226l190 143q64 -15 130 -15q104 0 199 35.5t163.5 95.5t109 143t40.5 174t-40.5 174t-109 143t-163.5 95.5t-199 35.5v0zM256 400q-20 0 -34 14t-14 34t14 34t34 14t34 -14
t14 -34t-14 -34t-34 -14v0zM512 400q-20 0 -34 14t-14 34t14 34t34 14t34 -14t14 -34t-14 -34t-34 -14v0zM768 400q-20 0 -34 14t-14 34t14 34t34 14t34 -14t14 -34t-14 -34t-34 -14v0zM768 384z" />
    <glyph glyph-name="5" unicode="&#xe625;" 
d="M512 831q-91 0 -174 -35t-142.5 -95t-95 -143t-35.5 -174q0 -139 79 -253q0 -1 1.5 -2.5t5 -4.5t7.5 -4.5t10 -1.5t11 3q9 6 11 14.5t-1 14.5l-2 6q-20 27 -40 74q-31 74 -31 154.5t31 153.5q30 71 85 126t126 85q73 31 153.5 31t154.5 -31q62 -26 113 -73l22 -21
q48 -52 75 -117q31 -73 31 -153.5t-31 -154.5q-30 -71 -84 -126q-8 -7 -17 -15q-11 83 -76 142q-37 33 -85 51q36 25 56.5 63.5t20.5 83.5q0 74 -52.5 126.5t-127 52.5t-126.5 -52.5t-52 -126.5q0 -45 20.5 -83.5t55.5 -63.5q-47 -18 -84 -51q-79 -71 -79 -172q0 -12 1 -22
q1 -6 4 -11l11 -12q113 -77 250 -77q91 0 173.5 35.5t142.5 95.5t95.5 142.5t35.5 173.5t-35.5 174t-95.5 143t-142.5 95t-173.5 35zM384 429q0 53 37.5 90.5t90.5 37.5t90.5 -37.5t37.5 -90.5t-37.5 -90.5t-90.5 -37.5t-90.5 37.5t-37.5 90.5zM511.5 -11q-80.5 0 -153.5 31
q-32 13 -61 32v7q0 79 63 134.5t151.5 55.5t151.5 -55.5t63 -134.5v-7q-29 -19 -60 -32q-74 -31 -154.5 -31z" />
    <glyph glyph-name="iconfont0083" unicode="&#xe61c;" horiz-adv-x="1091" 
d="M524 850l-46 46l-454 -456q-24 -25 -24 -58t24 -57l454 -453l46 46l-434 433h998v66h-995z" />
    <glyph glyph-name="4" unicode="&#xe606;" 
d="M251 448h773v-128h-773l338 -339l-90 -90l-448 448l-46 45l46 45l448 448l90 -90l-338 -339v0z" />
    <glyph glyph-name="zihao01" unicode="&#xe60f;" 
d="M478 141q-8 34 -20 66l-34 84h-226l-34 -84q-13 -35 -20 -66h-67q15 25 35 75l145 357q16 41 21 60h65q3 -13 22 -60l145 -357q23 -54 34 -75h-66zM325 549q-1 2 -1.5 4t-1.5 5l-4 12t-7 20q-1 -3 -3 -8t-3 -8t-1 -5q-2 -4 -3.5 -9t-2.5 -7.5t-2 -3.5l-82 -214h194z
M895 187q-33 -29 -60 -39q-34 -13 -67 -13q-54 0 -84.5 26t-30.5 72q0 39 24 66.5t69 39.5q50 15 149 17v38q0 66 -82 66q-53 0 -80 -27q-12 -13 -20 -38l-51 11q16 39 36 58q40 37 114 37q130 0 130 -107v-182q0 -36 5 -71h-52v46zM895 318q-105 -3 -144 -19
q-49 -20 -49 -66q0 -27 18.5 -43t50.5 -16q28 0 56.5 12.5t46.5 33.5q21 22 21 56v42z" />
    <glyph glyph-name="sousu" unicode="&#xe608;" 
d="M486 747q-93 0 -172 -46t-125 -125t-46 -172t46 -172t125 -125t172 -46t172 46t125 125t46 172t-46 172t-125 125t-172 46zM486 100q-126 0 -215 89t-89 215t89 215t215 89t215 -89t89 -215t-89 -215t-215 -89zM483 711zM151 576zM864 25q7 6 7 14.5t-5 14.5l-127 140
q-6 6 -14 6.5t-14 -5.5v0q-7 -6 -7 -14t5 -15l127 -140q5 -6 13.5 -6t14.5 5v0zM880 40v0h1h-0.5h-0.5z" />
    <glyph glyph-name="huati" unicode="&#xe6ab;" 
d="M569 747v0v-3v0v3zM300 421zM257 421q0 18 12.5 31t31 13t31 -13t12.5 -31t-12.5 -31t-31 -13t-31 13t-12.5 31zM511 421zM467 421q0 18 13 31t31 13t31 -13t13 -31t-13 -31t-31 -13t-31 13t-13 31zM721 421zM678 421q0 18 12.5 31t31 13t31 -13t12.5 -31t-12.5 -31
t-31 -13t-31 13t-12.5 31zM511 -126q-12 0 -21 9l-112 110q-73 19 -137 58q-66 40 -115 98q-50 58 -77 128q-28 73 -28 151q0 92 39 177q37 81 106 143q67 62 155 96q91 35 190 35t190 -35q87 -34 155 -96t106 -143q39 -85 39 -177q0 -75 -28 -147q-26 -69 -75 -128
q-96 -116 -244 -160l-122 -111q-9 -8 -21 -8zM511 819q-88 0 -168 -31q-77 -30 -136 -85q-61 -55 -93 -126t-32 -149q0 -133 89 -238.5t230 -139.5q8 -2 14 -8l97 -95l107 96q5 5 12 7q134 37 220 142q43 51 65 110q24 62 24 126q0 78 -32.5 149t-92.5 126q-59 55 -136 85
q-80 31 -168 31zM569 747v0v-3v0v3zM300 421zM257 421q0 18 12.5 31t31 13t31 -13t12.5 -31t-12.5 -31t-31 -13t-31 13t-12.5 31zM511 421zM467 421q0 18 13 31t31 13t31 -13t13 -31t-13 -31t-31 -13t-31 13t-13 31zM721 421zM678 421q0 18 12.5 31t31 13t31 -13t12.5 -31
t-12.5 -31t-31 -13t-31 13t-12.5 31zM511 -126q-12 0 -21 9l-112 110q-73 19 -137 58q-66 40 -115 98q-50 58 -77 128q-28 73 -28 151q0 92 39 177q37 81 106 143q67 62 155 96q91 35 190 35t190 -35q87 -34 155 -96t106 -143q39 -85 39 -177q0 -75 -28 -147
q-26 -69 -75 -128q-96 -116 -244 -160l-122 -111q-9 -8 -21 -8zM511 819q-88 0 -168 -31q-77 -30 -136 -85q-61 -55 -93 -126t-32 -149q0 -133 89 -238.5t230 -139.5q8 -2 14 -8l97 -95l107 96q5 5 12 7q134 37 220 142q43 51 65 110q24 62 24 126q0 78 -32.5 149t-92.5 126
q-59 55 -136 85q-80 31 -168 31z" />
    <glyph glyph-name="huatifill" unicode="&#xe6ad;" 
d="M584 763v0v-3v0v3zM976 620q-37 81 -105 144q-68 62 -155 96q-91 35 -190 35t-189 -35q-88 -34 -156 -96t-105 -144q-39 -84 -39 -176q0 -78 28 -150q26 -70 76 -129q50 -58 116 -98q64 -39 137 -58l111 -109q9 -9 22 -9q11 0 20 8l122 111q148 44 244 160q49 58 75 127
q27 72 27 147q0 92 -39 176zM316 393q-18 0 -31 13t-13 31t13 31t31 13t31 -13t13 -31t-13 -31t-31 -13zM526.5 393q-18.5 0 -31 13t-12.5 31t12.5 31t31 13t31 -13t12.5 -31t-12.5 -31t-31 -13zM737 393q-18 0 -31 13t-13 31t13 31t31 13t31 -13t13 -31t-13 -31t-31 -13z
" />
    <glyph glyph-name="02" unicode="&#xe6b2;" 
d="M832 546q-26 58 -74.5 102t-110.5 68q-65 25 -135 25t-135 -25q-62 -24 -110 -68q-49 -45 -75 -102q-28 -60 -28 -126q0 -55 20 -107q19 -50 54 -91t82 -70q46 -28 98 -41l79 -78q6 -6 15 -6q8 0 15 5l87 79q105 31 173 114q35 42 54 91q19 51 19 104q0 66 -28 126z
M384.5 393q-9.5 -9 -22 -9t-22 9t-9.5 22t9.5 22.5t22 9.5t22 -9.5t9.5 -22.5t-9.5 -22zM534 393q-9 -9 -22 -9t-22 9t-9 22t9 22.5t22 9.5t22 -9.5t9 -22.5t-9 -22zM684 393q-9 -9 -22 -9t-22 9t-9 22t9 22.5t22 9.5t22 -9.5t9 -22.5t-9 -22z" />
    <glyph glyph-name="jietu01" unicode="&#xe6a3;" 
d="M915 832h-91q-19 0 -32.5 -13t-13.5 -32v-25h-532v25q0 19 -13.5 32t-32.5 13h-91q-19 0 -32 -13t-13 -32v-91q0 -19 13 -32.5t32 -13.5h25v-532h-25q-19 0 -32 -13.5t-13 -32.5v-91q0 -19 13 -32t32 -13h91q19 0 32.5 13t13.5 32v25h532v-25q0 -19 13.5 -32t32.5 -13h91
q19 0 32 13t13 32v91q0 19 -13 32.5t-32 13.5h-39v532h39q19 0 32 13.5t13 32.5v91q0 19 -13 32t-32 13zM218 695q0 -7 -5 -12t-12 -5h-92q-7 0 -12 5t-5 12v92q0 7 5 12t12 5h92q7 0 12 -5t5 -12v-92zM218 -19q0 -7 -5 -12t-12 -5h-92q-7 0 -12 5t-5 12v92q0 7 5 12t12 5
h92q7 0 12 -5t5 -12v-92zM932 -19q0 -7 -5 -12t-12 -5h-92q-7 0 -12 5t-5 12v92q0 7 5 12t12 5h92q7 0 12 -5t5 -12v-92zM848 118h-24q-19 0 -32.5 -13.5t-13.5 -32.5v-38h-532v38q0 19 -13.5 32.5t-32.5 13.5h-38v532h38q19 0 32.5 13.5t13.5 32.5v38h532v-38
q0 -19 13.5 -32.5t32.5 -13.5h24v-532zM932 695q0 -7 -5 -12t-12 -5h-92q-7 0 -12 5t-5 12v92q0 7 5 12t12 5h92q7 0 12 -5t5 -12v-92z" />
    <glyph glyph-name="xinwen1" unicode="&#xe63a;" 
d="M463 582v281h-262q-20 0 -34.5 -14.5t-14.5 -34.5v-860q0 -21 14.5 -35.5t34.5 -14.5h622q20 0 34.5 14.5t14.5 35.5v529h-311q-41 0 -69.5 29t-28.5 70zM792 10h-560q-11 0 -19 8t-8 19t8 19t19 8h560q11 0 19 -8t8 -19t-8 -19t-19 -8zM792 117h-560q-11 0 -19 7.5
t-8 18.5t8 19t19 8h560q11 0 19 -8t8 -19t-8 -18.5t-19 -7.5zM819 250q0 -11 -8 -18.5t-19 -7.5h-560q-11 0 -19 7.5t-8 18.5t8 19t19 8h560q11 0 19 -8t8 -19zM539 330h-307q-11 0 -19 8t-8 19t8 18.5t19 7.5h307q11 0 18.5 -7.5t7.5 -18.5t-7.5 -19t-18.5 -8zM561 532h311
l-360 332v-282q0 -20 14.5 -35t34.5 -15z" />
    <glyph glyph-name="news" unicode="&#xe6b6;" 
d="M512 768q-159 0 -271.5 -112.5t-112.5 -271.5t112.5 -271.5t271.5 -112.5t271.5 112.5t112.5 271.5t-112.5 271.5t-271.5 112.5zM512 59q-88 0 -163 43.5t-118.5 118.5t-43.5 163t43.5 163t118.5 118.5t163 43.5q5 0 21 -1q-13 -2 -27.5 -6t-39.5 -16.5t-46.5 -30.5
t-45 -50t-39.5 -73q0 -2 0.5 -16.5t0.5 -26.5t-1 -16q-2 -7 -2 -29.5t2 -29.5q1 -5 8 -12t14 -13l7 -5l33 6q1 -25 10 -34q4 -5 3 -9.5t-5 -8.5l-3 -3q-1 -4 -2 -10t-2.5 -18.5t-0.5 -18.5q5 -43 12 -52q2 -4 12.5 -10t19.5 -10l9 -5q20 -13 20 -22q0 -10 12 -32
q2 -3 10.5 -12t15 -18.5t5.5 -17t0.5 -11t5 -7.5t5.5 -9q6 -16 24 -21q-19 -2 -36 -2zM557 63q14 44 10 52q-3 5 -6.5 12.5t-5.5 12.5l-3 5l2 32q5 14 14 21q11 9 20 28q18 38 20 47q0 4 16 13.5t27.5 20t5.5 17.5q-17 18 -57 30q-4 1 -25 2.5t-38 4.5t-19 10
q-1 7 -10.5 8.5t-18.5 0t-16 -4.5q-6 -4 -16 -7t-20 -3t-12 6q-2 7 1 23t2 20v0q3 11 -8 17t-22 0q-7 -4 -8 0q-1 6 9 13q3 2 12 10.5t15.5 13.5t7.5 1q4 -10 34 -2q5 3 12 2t10 -14q3 -17 26 -30q9 -6 9 -2q0 3 2 13t2.5 17.5t-2.5 15.5l-11 20q28 0 37 21q7 15 14 21t12 4
t9 -2t4 3t-2 19q2 -11 16 10q18 31 6 39q-6 3 -8.5 14.5t-9.5 21.5t-26 12q-19 1 -34.5 -1.5t-21.5 -5.5l-6 -4l3 -13q4 -4 4 -11q0 -3 -6.5 -4.5t-12.5 -1.5h-6q-1 2 -1.5 4t-2 7t-0.5 8l7 21l15 20q5 0 16 -3q6 -2 12.5 -1.5t12.5 1.5l5 1l-8 38q93 -9 166 -65.5
t106 -142.5q-46 -13 -68 -56q-8 -16 -20 -22.5t-23.5 -3.5t-22 9t-16.5 11.5l-6 5.5q2 -3 5 -8t13.5 -19.5t21 -26.5t25 -24.5t28 -18.5t28 -5t26.5 13q17 17 30 34v-2v-2q0 -122 -80.5 -213.5t-199.5 -107.5v0z" />
    <glyph glyph-name="weibo" unicode="&#xe647;" 
d="M466 392q-77 -4 -130 -40t-53 -87q0 -50 53.5 -83t129.5 -30q75 4 129 44t54 91q0 50 -53 79t-130 26zM534 222q-24 -32 -64.5 -41t-86.5 14q-13 7 -19.5 18t-7.5 19v8q1 1 -1 10t3 24.5t12 30t27 27t48 15.5q36 4 61 -9t34 -34t7.5 -44t-13.5 -38zM418 273
q-14 -2 -23 -12t-9 -23q0 -12 10 -19t24 -5.5t24 11t10 21.5q0 13 -10 20.5t-26 6.5zM466 286q-11 -8 -4 -20q6 -10 18 -1q11 9 5 19q-6 11 -19 2zM512 896q-103 0 -197.5 -40t-162.5 -108.5t-108 -162.5t-40 -197t40 -197.5t108 -162.5t162.5 -108t197.5 -40t197.5 40
t162.5 108t108 162.5t40 197.5t-40 197t-108 162.5t-162.5 108.5t-197.5 40zM739 243q-30 -63 -114 -96.5t-167 -27.5q-41 3 -76.5 11.5t-71 25.5t-58.5 47.5t-28 72.5q-1 6 -0.5 16.5t11.5 42.5t34 63q3 4 8.5 11t23 26.5t35 36t43.5 33.5t50 25q24 9 42.5 9t28.5 -5
t16 -15t7.5 -19t1.5 -19q-6 -20 -4 -28.5t23 -1.5q4 2 9.5 4.5t22 7t31 6.5t31 -1t26.5 -12q12 -13 13.5 -29.5t-4.5 -27.5l-5 -10q0 -1 -0.5 -2t-1.5 -3.5t0 -4.5t4.5 -4.5t10.5 -3.5q8 -2 19 -6.5t23.5 -15t20 -24.5t7.5 -35.5t-12 -46.5zM655 487q-7 0 -11.5 5t-4.5 12
t4.5 11.5t11.5 4.5q5 1 11.5 1.5t24 -2t30 -10.5t21 -29t5.5 -52v-2q-3 -14 -17 -14q-7 0 -12 5t-5 12q1 0 1.5 7.5t0 17.5t-6.5 19.5t-18 13.5t-35 0zM831 398v0q-2 -13 -7.5 -17t-16 -4t-17.5 6t-7 16q0 5 1.5 11t2.5 9l1 4q11 38 -7 80q-17 28 -45.5 43t-48.5 17t-26 -1
l-22 -5q-10 0 -17.5 7t-7.5 17q0 19 18 24h0.5t1 0.5t1.5 0.5q48 9 83 1q27 -6 50.5 -20.5t45 -40.5t25.5 -62t-8 -86z" />
    <glyph glyph-name="zhibo" unicode="&#xe604;" 
d="M511.5 91q-180.5 0 -358.5 33l-9 2l-4 8q-98 250 0 500l4 8l9 2q359 66 718 0l9 -2l4 -8q98 -250 0 -500l-4 -8l-9 -2q-179 -33 -359.5 -33zM168 154q344 -62 688 0q88 230 0 460q-344 62 -688 0q-44 -115 -44 -230t44 -230zM393 196l-1 27q-9 161 0 322l1 27l40 -23
q173 -101 261 -151l25 -14l-25 -14q-89 -50 -261 -150zM423 517q-6 -133 0 -266q149 87 230 133q-81 46 -230 133z" />
    <glyph glyph-name="zuojiantou1" unicode="&#xe6e0;" 
d="M468 810l-384 -387q0 -1 -0.5 -1h-0.5v-1h-0.5h-0.5v-1l-1 -1h-0.5t-0.5 -1v0l-1 -1v0l-0.5 -0.5l-0.5 -0.5v0q0 -1 -1 -1v-1v0v0l-1 -1v-1h-1v-0.5v-0.5v-0.5t-1 -1.5v0v0l-1 -1l-0.5 -1l-0.5 -1v-0.5t-0.5 -1.5l-0.5 -1v0l-0.5 -1t-0.5 -2v0l-0.5 -1t-0.5 -2v0l-0.5 -1
l-0.5 -1v-1v-1t-1 -1v-1v-1v-1v-1v-1v-0.5v-0.5v0q0 -1 -1 -2v-0.5v-0.5v0v-2v0v-1v0v0v-1.5v-1.5v-1v-0.5v-0.5l1 -1v0v-2v-1v0v-2v-1v0q1 -1 1 -2v-1v0q0 -1 0.5 -2l0.5 -1v0l0.5 -1l0.5 -1v-1l0.5 -1t0.5 -1.5v-0.5l0.5 -1l0.5 -1v-1h0.5h0.5v-2h1v-0.5v-0.5l1 -1v-1v0v0
l1 -1v-1h0.5t0.5 -0.5v-0.5v0l1 -1v-1h0.5h0.5v-1l1 -1v0l0.5 -0.5l0.5 -0.5l1 -1v0l0.5 -0.5l0.5 -0.5v0q0 -1 0.5 -1h0.5l378 -383q18 -18 43.5 -18t43 18t18 43t-17.5 43l-276 279h629q25 0 43 17.5t18 43t-18 43.5t-43 18h-629l282 283q18 18 17.5 43.5t-18 43t-43 17.5
t-43.5 -18z" />
    <glyph glyph-name="xinwen-copy" unicode="&#xe600;" 
d="M785 13h-546q-26 0 -44 18.5t-18 43.5v618q0 25 18 43.5t44 18.5h416l192 -195v-485q0 -25 -18 -43.5t-44 -18.5v0zM239 723q-12 0 -21 -9t-9 -21v-618q0 -12 9 -21t21 -9h546q12 0 21 9t9 21v472l-173 176h-403zM302 599h182v-33h-182v33zM302 516h182v-32h-182v32z
M302 434h182v-32h-182v32zM302 308h418v-32h-418v32zM302 202h418v-33h-418v33zM830 538h-131q-26 0 -44 18.5t-18 43.5v134h32v-134q0 -12 9 -21t21 -9h131v-32z" />
    <glyph glyph-name="icon5" unicode="&#xe605;" 
d="M378 734q-62 -23 -112 -66.5t-82 -101.5h136q20 98 58 168v0zM496 566v192q-41 -2 -84 -13q-43 -73 -64 -179h148v0zM832 566q-66 119 -190 167q39 -70 58 -167h132v0zM608 744q-41 12 -84 14v-192h148q-20 106 -64 178v0zM642 43q124 48 190 167h-133q-19 -98 -57 -167
v0zM524 210v-191q45 2 83 12q44 71 65 179h-148v0zM184 210q32 -58 82.5 -101.5t112.5 -67.5q-39 70 -58 169h-137v0zM413 31q42 -12 83 -13v192h-148q21 -108 65 -179v0zM221 274v239h-30v-187l-126 187h-32v-239h30v188l126 -188h32zM447 485v28h-172v-239h178v29h-147v81
h133v28h-133v73h141zM538 274h33l50 182q4 12 7 28q2 -5 8 -28l50 -182h31l65 239h-32l-37 -153q-7 -30 -12 -52q-6 39 -18 84l-35 121h-38l-45 -161q-2 -6 -11 -44q-4 24 -10 49l-37 156h-32l63 -239v0zM981 376q-10 15 -31 24q-14 7 -52.5 15.5t-47.5 17t-9 21.5
q0 14 13 24.5t42 10.5q27 0 41 -11.5t17 -33.5l30 2q-1 21 -12 37.5t-31 25t-47 8.5q-24 0 -43.5 -8t-30 -23.5t-10.5 -33.5q0 -17 8.5 -30.5t25.5 -21.5q13 -7 46 -15t43 -12q15 -6 21.5 -14.5t6.5 -19.5t-7 -20.5t-21 -14.5t-32 -5q-20 0 -36.5 7t-24 18.5t-9.5 29.5
l-30 -3q1 -24 13.5 -43t34 -28.5t54.5 -9.5q25 0 45.5 9.5t31.5 26.5t11 36t-10 34v0zM981 376z" />
    <glyph glyph-name="xinwen" unicode="&#xe744;" 
d="M512 382zM4 382.5q0 -103.5 40 -198t108.5 -162.5t162.5 -108t197.5 -40t197.5 40t162.5 108t108.5 162.5t40 198t-40 197.5t-108.5 162.5t-162.5 108.5t-197.5 40t-197.5 -40t-162.5 -108.5t-108.5 -162.5t-40 -197.5zM512 382zM157 382.5q0 -96.5 47.5 -178.5
t129.5 -129.5t178.5 -47.5t178.5 47.5t129.5 129.5t47.5 178.5t-47.5 178.5t-129.5 129.5t-178.5 47.5t-178.5 -47.5t-129.5 -129.5t-47.5 -178.5zM898 88h-771q-10 0 -17.5 7.5t-7.5 18.5v537q0 10 7.5 17.5t17.5 7.5h771q10 0 17.5 -7.5t7.5 -17.5v-537q0 -11 -7.5 -18.5
t-17.5 -7.5v0zM923 171v-44q0 -11 -7.5 -18.5t-17.5 -7.5h-771q-10 0 -17.5 7.5t-7.5 18.5v44q0 -11 7.5 -18t17.5 -7h771q10 0 17.5 7t7.5 18zM923 651v-37h-821v37q0 10 7.5 17.5t17.5 7.5h771q10 0 17.5 -7.5t7.5 -17.5zM165 257h231v-168h-231v168zM157 645zM146 645
q0 -4 3.5 -7.5t8 -3.5t7.5 3.5t3 7.5t-3 7.5t-7.5 3.5t-8 -3.5t-3.5 -7.5zM194 645zM184 645q0 -4 3 -7.5t7.5 -3.5t7.5 3.5t3 7.5t-3 7.5t-7.5 3.5t-7.5 -3.5t-3 -7.5zM232 645zM221 645q0 -4 3 -7.5t7.5 -3.5t8 3.5t3.5 7.5t-3.5 7.5t-8 3.5t-7.5 -3.5t-3 -7.5zM102 614
h821h-821zM448 550h119v-18h-119v18zM448 486h411v-17h-411v17zM448 423h411v-18h-411v18zM448 257h119v-17h-119v17zM448 194h411v-18h-411v18zM448 130h411v-17h-411v17zM165 550h231v-231h-231v231zM165 339h231v-20h-231v20zM646 358h-91q-8 0 -13.5 -5.5t-5.5 -13.5v0
v0q0 -8 5.5 -14t13.5 -6h91v0q8 0 13.5 6t5.5 14v0q0 8 -5.5 13.5t-13.5 5.5zM837 358h-91v0q-8 0 -13.5 -5.5t-5.5 -13.5v0v0q0 -8 5.5 -14t13.5 -6h91v0q8 0 13.5 6t5.5 14v0q0 8 -5.5 13.5t-13.5 5.5z" />
    <glyph glyph-name="huifu" unicode="&#xe653;" 
d="M374 462q-14 0 -23.5 -10t-9.5 -24.5t9.5 -24.5t23.5 -10t24 10t10 24.5t-10 24.5t-24 10zM508 462q-14 0 -23.5 -10t-9.5 -24.5t9.5 -24.5t23.5 -10t23.5 10t9.5 24.5t-9.5 24.5t-23.5 10zM642 462q-14 0 -24 -10t-10 -24.5t10 -24.5t24 -10t23.5 10t9.5 24.5t-9.5 24.5
t-23.5 10zM709 636h-402q-28 0 -47.5 -20.5t-19.5 -48.5v-261q0 -29 20.5 -51t48.5 -22h102l91 -96q6 -6 12 0q54 62 89 96h104q28 0 48.5 22t20.5 51v261q0 28 -19.5 48.5t-47.5 20.5zM742 306q0 -14 -10.5 -26.5t-24.5 -12.5h-102q-6 0 -12 -3t-9 -7l-3 -3l-72 -75l-72 75
q-14 13 -26 13h-102q-14 0 -24.5 12.5t-10.5 26.5v261q0 14 9.5 24t23.5 10h402q14 0 23.5 -10t9.5 -24v-261z" />
    <glyph glyph-name="zhibo1" unicode="&#xe67d;" 
d="M867 121h-710q-42 0 -71.5 30t-29.5 72v324q0 42 29.5 72t71.5 30h710q42 0 71.5 -30t29.5 -72v-324q0 -42 -29.5 -72t-71.5 -30zM157 633q-35 0 -60 -25t-25 -61v-324q0 -35 25 -60t60 -25h710q35 0 60 25t25 60v324q0 36 -25 61t-60 25h-710zM344 514q1 9 3 26l30 -4
q-1 -8 -3 -22h116v-28h-120q-4 -15 -5 -20h87v-178h44v-27h-274v27h42v178h71q4 15 4 20h-112v28h117zM423 419v21h-130v-21h130zM423 376v20h-130v-20h130zM423 332v20h-130v-20h130zM423 288v21h-130v-21h130zM658 269v-14h-27v124q-1 -1 -3.5 -2.5t-3.5 -1.5l-12 19v-7
q-5 -4 -22 -12v-87q0 -29 -30 -29h-26l-6 27q11 -1 22 -1t11 11v66q-15 -6 -32 -12l-7 29q19 4 39 12v64h-33v28h33v55h29v-55h23v-28h-23v-52q10 5 22 12v-16q39 16 61 38h-52v25h31q-4 10 -12 22l24 9q7 -13 13 -31h19v39q-31 -2 -67 -2l-8 24q97 0 164 16l13 -24
q-32 -8 -75 -12v-41h18q10 19 17 38l24 -9q-7 -16 -15 -29h34v-25h-55q24 -21 65 -37l-13 -24q-2 1 -5.5 3t-5.5 3v-127h-27v14h-102zM724 437h-1v-40h-27v40h-1q-18 -29 -48 -49h130q-32 21 -53 49zM658 364v-24h39v24h-39zM658 317v-24h39v24h-39zM760 340v24h-38v-24h38z
M760 293v24h-38v-24h38z" />
    <glyph glyph-name="zuojiantou2" unicode="&#xe610;" horiz-adv-x="1158" 
d="M1157 318h-918l363 -352l-95 -94l-459 446h-18v17l-30 29l20 20l-20 20l30 29v17h18l459 446l95 -94l-363 -352h918v-132z" />
    <glyph glyph-name="cha" unicode="&#xe63d;" 
d="M699 228q5 -6 5 -15t-6.5 -15.5t-15.5 -6.5q-8 0 -14 6l-156 156l-156 -156q-6 -7 -15.5 -7t-16 6.5t-6.5 16t7 15.5l156 156l-156 156q-6 6 -6 15t6.5 15.5t15.5 6.5t15 -6l156 -156l156 156q6 6 15 6t15.5 -6.5t6.5 -15.5t-6 -15l-156 -156l156 -156v0z" />
  </font>
</defs>
</svg>
